<svg width="26" height="27" viewBox="0 0 26 27" fill="none" xmlns="http://www.w3.org/2000/svg">
<path d="M8.20139 7.17112C7.80346 6.64887 7.95456 5.89589 8.52317 5.5676C9.05388 5.2612 9.73302 5.49045 9.96945 6.05581L13.1541 13.6711L8.20139 7.17112Z" fill="#FCD043"/>
<path d="M19.6531 8.71769C20.1753 8.31976 20.9283 8.47086 21.2566 9.03947C21.563 9.57018 21.3338 10.2493 20.7684 10.4857L13.1531 13.6704L19.6531 8.71769Z" fill="#FCD043"/>
<path d="M14.2815 5.58162C14.3694 4.93095 15.0087 4.50536 15.6429 4.6753C16.2349 4.8339 16.553 5.47624 16.3204 6.04319L13.1874 13.6799L14.2815 5.58162Z" fill="#FCD043"/>
<path d="M21.2884 14.7751C21.9391 14.863 22.3647 15.5023 22.1948 16.1365C22.0362 16.7284 21.3938 17.0465 20.8269 16.8139L13.1901 13.681L21.2884 14.7751Z" fill="#FCD043"/>
<path d="M18.104 20.1704C18.502 20.6926 18.3509 21.4456 17.7822 21.7739C17.2515 22.0803 16.5724 21.851 16.336 21.2857L13.1513 13.6704L18.104 20.1704Z" fill="#FCD043"/>
<path d="M6.65037 18.6217C6.12812 19.0197 5.37514 18.8686 5.04685 18.2999C4.74045 17.7692 4.9697 17.0901 5.53506 16.8537L13.1504 13.669L6.65037 18.6217Z" fill="#FCD043"/>
<path d="M12.0949 21.7804C12.007 22.431 11.3677 22.8566 10.7335 22.6867C10.1416 22.5281 9.82349 21.8858 10.0561 21.3188L13.189 13.6821L12.0949 21.7804Z" fill="#FCD043"/>
<path d="M5.09169 12.5857C4.44102 12.4977 4.01543 11.8585 4.18537 11.2243C4.34397 10.6323 4.98631 10.3142 5.55326 10.5468L13.19 13.6798L5.09169 12.5857Z" fill="#FCD043"/>
</svg>
