<svg width="80" height="80" viewBox="0 0 80 80" fill="none" xmlns="http://www.w3.org/2000/svg">
<path d="M22.4622 3.97128L24.5587 3.07015C25.5237 2.66965 26.2558 2.97003 26.6552 3.83778C27.0545 4.73891 26.755 5.50653 25.7899 5.90703L24.3257 6.54116L25.1909 8.51029L24.5587 8.77729L22.4622 3.97128ZM24.0928 5.97378L25.3573 5.43978C26.0894 5.13941 26.2558 4.67216 26.0229 4.10478C25.7899 3.53741 25.3241 3.37053 24.5919 3.67091L23.3274 4.20491L24.0928 5.97378Z" fill="#1B3B36"/>
<path d="M22.4622 3.97128L24.5587 3.07015C25.5237 2.66965 26.2558 2.97003 26.6552 3.83778C27.0545 4.73891 26.755 5.50653 25.7899 5.90703L24.3257 6.54116L25.1909 8.51029L24.5587 8.77729L22.4622 3.97128ZM24.0928 5.97378L25.3573 5.43978C26.0894 5.13941 26.2558 4.67216 26.0229 4.10478C25.7899 3.53741 25.3241 3.37053 24.5919 3.67091L23.3274 4.20491L24.0928 5.97378Z" fill="black" fill-opacity="0.2"/>
<path d="M32.0798 0.700778L34.5091 0.333652C35.4742 0.200152 36.173 0.634028 36.2728 1.4684C36.3727 2.10253 36.173 2.63653 35.574 2.90353C36.2063 2.93691 36.3727 3.33741 36.5058 3.83803C36.6389 4.33866 36.6722 4.90603 37.0382 5.20641L36.2728 5.30653C36.0399 5.13966 36.0732 4.53891 35.9068 4.07166C35.7737 3.57103 35.574 3.17053 34.9085 3.27066L33.2446 3.53766L33.5773 5.74041L32.8785 5.84054L32.0798 0.700778ZM34.5424 2.77003C35.1747 2.66991 35.7071 2.43628 35.6073 1.66865C35.5407 1.16803 35.208 0.834278 34.5424 0.934403L32.8452 1.2014L33.1114 3.00366L34.5424 2.77003Z" fill="#1B3B36"/>
<path d="M32.0798 0.700778L34.5091 0.333652C35.4742 0.200152 36.173 0.634028 36.2728 1.4684C36.3727 2.10253 36.173 2.63653 35.574 2.90353C36.2063 2.93691 36.3727 3.33741 36.5058 3.83803C36.6389 4.33866 36.6722 4.90603 37.0382 5.20641L36.2728 5.30653C36.0399 5.13966 36.0732 4.53891 35.9068 4.07166C35.7737 3.57103 35.574 3.17053 34.9085 3.27066L33.2446 3.53766L33.5773 5.74041L32.8785 5.84054L32.0798 0.700778ZM34.5424 2.77003C35.1747 2.66991 35.7071 2.43628 35.6073 1.66865C35.5407 1.16803 35.208 0.834278 34.5424 0.934403L32.8452 1.2014L33.1114 3.00366L34.5424 2.77003Z" fill="black" fill-opacity="0.2"/>
<path d="M42.4624 0L46.0564 0.367126L45.9898 0.967877L43.0947 0.667501L42.9283 2.33625L45.6238 2.60325L45.5572 3.20401L42.8617 2.937L42.662 4.73926L45.5905 5.00626L45.5239 5.60701L41.9299 5.20651L42.4624 0Z" fill="#1B3B36"/>
<path d="M42.4624 0L46.0564 0.367126L45.9898 0.967877L43.0947 0.667501L42.9283 2.33625L45.6238 2.60325L45.5572 3.20401L42.8617 2.937L42.662 4.73926L45.5905 5.00626L45.5239 5.60701L41.9299 5.20651L42.4624 0Z" fill="black" fill-opacity="0.2"/>
<path d="M52.2797 1.80176L53.1782 2.16888L53.1117 6.87477L56.2731 3.40376L57.1716 3.77089L55.2415 8.64365L54.5759 8.34327L56.1732 4.27151L53.0451 7.74252L52.4794 7.50889L52.5459 2.83638L50.9486 6.90814L50.3496 6.67452L52.2797 1.80176Z" fill="#1B3B36"/>
<path d="M52.2797 1.80176L53.1782 2.16888L53.1117 6.87477L56.2731 3.40376L57.1716 3.77089L55.2415 8.64365L54.5759 8.34327L56.1732 4.27151L53.0451 7.74252L52.4794 7.50889L52.5459 2.83638L50.9486 6.90814L50.3496 6.67452L52.2797 1.80176Z" fill="black" fill-opacity="0.2"/>
<path d="M62.7285 7.0752L63.2942 7.4757L60.2659 11.7477L59.7002 11.3472L62.7285 7.0752Z" fill="#1B3B36"/>
<path d="M62.7285 7.0752L63.2942 7.4757L60.2659 11.7477L59.7002 11.3472L62.7285 7.0752Z" fill="black" fill-opacity="0.2"/>
<path d="M68.5864 16.954C67.6213 17.8551 66.5897 17.755 65.7245 16.7871C64.8259 15.7859 64.7594 14.7846 65.791 13.8501L68.2536 11.614L68.7195 12.1146L66.2236 14.3508C65.5248 14.9849 65.5248 15.7191 66.1238 16.3866C66.7228 17.0541 67.4216 17.0541 68.0872 16.4534L70.5497 14.2173L71.0156 14.7179L68.5864 16.954Z" fill="#1B3B36"/>
<path d="M68.5864 16.954C67.6213 17.8551 66.5897 17.755 65.7245 16.7871C64.8259 15.7859 64.7594 14.7846 65.791 13.8501L68.2536 11.614L68.7195 12.1146L66.2236 14.3508C65.5248 14.9849 65.5248 15.7191 66.1238 16.3866C66.7228 17.0541 67.4216 17.0541 68.0872 16.4534L70.5497 14.2173L71.0156 14.7179L68.5864 16.954Z" fill="black" fill-opacity="0.2"/>
<path d="M74.8433 20.2258L75.2759 21.0936L72.048 24.4978L76.7069 24.064L77.1395 24.9317L72.4473 27.2346L72.1478 26.6338L76.0746 24.7315L71.449 25.1653L71.1827 24.6313L74.3774 21.2605L70.4506 23.1628L70.1511 22.5621L74.8433 20.2258Z" fill="#1B3B36"/>
<path d="M74.8433 20.2258L75.2759 21.0936L72.048 24.4978L76.7069 24.064L77.1395 24.9317L72.4473 27.2346L72.1478 26.6338L76.0746 24.7315L71.449 25.1653L71.1827 24.6313L74.3774 21.2605L70.4506 23.1628L70.1511 22.5621L74.8433 20.2258Z" fill="black" fill-opacity="0.2"/>
<path d="M80.0013 38.4817L79.968 40.9514C79.968 41.9193 79.4023 42.5201 78.5704 42.5201C77.9381 42.5201 77.4389 42.2197 77.2725 41.5855C77.1394 42.1863 76.7068 42.3198 76.1744 42.3532C75.6752 42.3866 75.0762 42.3532 74.7434 42.6536V41.8859C74.9431 41.6857 75.5088 41.8192 76.0412 41.719C76.5404 41.6523 76.973 41.5522 77.0063 40.8513L77.0396 39.1492L74.81 39.1158V38.4149L80.0013 38.4817ZM77.572 40.5843C77.572 41.2518 77.7051 41.7858 78.4705 41.8192C78.9697 41.8192 79.369 41.5522 79.369 40.8847L79.4023 39.1492L77.572 39.1158V40.5843Z" fill="#1B3B36"/>
<path d="M80.0013 38.4817L79.968 40.9514C79.968 41.9193 79.4023 42.5201 78.5704 42.5201C77.9381 42.5201 77.4389 42.2197 77.2725 41.5855C77.1394 42.1863 76.7068 42.3198 76.1744 42.3532C75.6752 42.3866 75.0762 42.3532 74.7434 42.6536V41.8859C74.9431 41.6857 75.5088 41.8192 76.0412 41.719C76.5404 41.6523 76.973 41.5522 77.0063 40.8513L77.0396 39.1492L74.81 39.1158V38.4149L80.0013 38.4817ZM77.572 40.5843C77.572 41.2518 77.7051 41.7858 78.4705 41.8192C78.9697 41.8192 79.369 41.5522 79.369 40.8847L79.4023 39.1492L77.572 39.1158V40.5843Z" fill="black" fill-opacity="0.2"/>
<path d="M78.6022 51.0641C78.1363 52.6661 76.6388 53.1333 75.2744 52.7328C73.91 52.3323 72.8784 51.1642 73.311 49.5622C73.7769 47.9602 75.2744 47.493 76.6388 47.8935C78.0032 48.294 79.0348 49.4621 78.6022 51.0641ZM73.8768 49.7291C73.544 50.964 74.4425 51.765 75.4408 52.0653C76.4392 52.3657 77.6704 52.1321 78.0032 50.8972C78.336 49.6623 77.4375 48.8613 76.4392 48.561C75.4408 48.294 74.2428 48.4942 73.8768 49.7291Z" fill="#1B3B36"/>
<path d="M78.6022 51.0641C78.1363 52.6661 76.6388 53.1333 75.2744 52.7328C73.91 52.3323 72.8784 51.1642 73.311 49.5622C73.7769 47.9602 75.2744 47.493 76.6388 47.8935C78.0032 48.294 79.0348 49.4621 78.6022 51.0641ZM73.8768 49.7291C73.544 50.964 74.4425 51.765 75.4408 52.0653C76.4392 52.3657 77.6704 52.1321 78.0032 50.8972C78.336 49.6623 77.4375 48.8613 76.4392 48.561C75.4408 48.294 74.2428 48.4942 73.8768 49.7291Z" fill="black" fill-opacity="0.2"/>
<path d="M74.111 61.243C73.2458 62.6448 71.6817 62.6781 70.4504 61.9439C69.2524 61.2096 68.5536 59.7745 69.4521 58.3728C70.3173 56.971 71.8814 56.9376 73.1127 57.6719C74.3107 58.4061 75.0095 59.8079 74.111 61.243ZM69.9513 58.6731C69.2857 59.7745 69.918 60.8091 70.8165 61.3431C71.715 61.9105 72.913 62.0106 73.6118 60.9426C74.2774 59.8413 73.6451 58.8066 72.7466 58.2726C71.8481 57.7053 70.6168 57.5718 69.9513 58.6731Z" fill="#1B3B36"/>
<path d="M74.111 61.243C73.2458 62.6448 71.6817 62.6781 70.4504 61.9439C69.2524 61.2096 68.5536 59.7745 69.4521 58.3728C70.3173 56.971 71.8814 56.9376 73.1127 57.6719C74.3107 58.4061 75.0095 59.8079 74.111 61.243ZM69.9513 58.6731C69.2857 59.7745 69.918 60.8091 70.8165 61.3431C71.715 61.9105 72.913 62.0106 73.6118 60.9426C74.2774 59.8413 73.6451 58.8066 72.7466 58.2726C71.8481 57.7053 70.6168 57.5718 69.9513 58.6731Z" fill="black" fill-opacity="0.2"/>
<path d="M68.5851 68.2523L67.8863 68.8864L63.7266 66.7171L65.4237 71.1226L64.7249 71.7567L61.2307 67.8518L61.7299 67.4179L64.6251 70.6553L62.9279 66.3166L63.3605 65.9161L67.487 68.0854L64.5918 64.8481L65.091 64.4142L68.5851 68.2523Z" fill="#1B3B36"/>
<path d="M68.5851 68.2523L67.8863 68.8864L63.7266 66.7171L65.4237 71.1226L64.7249 71.7567L61.2307 67.8518L61.7299 67.4179L64.6251 70.6553L62.9279 66.3166L63.3605 65.9161L67.487 68.0854L64.5918 64.8481L65.091 64.4142L68.5851 68.2523Z" fill="black" fill-opacity="0.2"/>
<path d="M55.7081 75.3279C56.1074 75.9621 56.7064 76.0288 57.3387 75.7284C57.8711 75.4614 58.3037 75.0276 58.0042 74.3934C57.738 73.8261 56.9393 74.0931 56.0741 74.2933C55.2422 74.4936 54.377 74.5937 53.9111 73.6592C53.4119 72.6579 54.2106 71.7902 55.0758 71.3563C56.1407 70.8557 57.2721 70.9224 57.8379 72.0572L57.2388 72.3576C56.8395 71.5566 56.0408 71.5565 55.3087 71.8903C54.743 72.1573 54.2106 72.6579 54.5433 73.3254C54.8428 73.9596 55.6748 73.7259 56.5067 73.5257C57.3387 73.3254 58.2039 73.1586 58.6032 74.0263C59.0691 74.9942 58.4369 75.8286 57.5716 76.2291C56.6066 76.6963 55.6748 76.5962 55.1091 75.5949L55.7081 75.3279Z" fill="#1B3B36"/>
<path d="M55.7081 75.3279C56.1074 75.9621 56.7064 76.0288 57.3387 75.7284C57.8711 75.4614 58.3037 75.0276 58.0042 74.3934C57.738 73.8261 56.9393 74.0931 56.0741 74.2933C55.2422 74.4936 54.377 74.5937 53.9111 73.6592C53.4119 72.6579 54.2106 71.7902 55.0758 71.3563C56.1407 70.8557 57.2721 70.9224 57.8379 72.0572L57.2388 72.3576C56.8395 71.5566 56.0408 71.5565 55.3087 71.8903C54.743 72.1573 54.2106 72.6579 54.5433 73.3254C54.8428 73.9596 55.6748 73.7259 56.5067 73.5257C57.3387 73.3254 58.2039 73.1586 58.6032 74.0263C59.0691 74.9942 58.4369 75.8286 57.5716 76.2291C56.6066 76.6963 55.6748 76.5962 55.1091 75.5949L55.7081 75.3279Z" fill="black" fill-opacity="0.2"/>
<path d="M48.7181 74.6931L47.9194 74.8933L47.7197 74.0923L48.5184 73.8921L48.7181 74.6931Z" fill="#1B3B36"/>
<path d="M48.7181 74.6931L47.9194 74.8933L47.7197 74.0923L48.5184 73.8921L48.7181 74.6931Z" fill="black" fill-opacity="0.2"/>
<path d="M35.4084 80L33.5449 79.6996C33.079 79.6329 32.48 79.5328 32.2137 79.2991C31.9142 79.0321 31.7146 78.6316 31.7811 78.131C31.881 77.5636 32.2137 77.2299 32.7462 77.0964C32.1472 76.8627 31.8477 76.3287 31.9808 75.6946C32.1139 74.927 32.7795 74.2929 33.7778 74.4597L36.2736 74.8602L35.4084 80ZM35.1089 77.6638L33.7445 77.4301C32.9791 77.2966 32.6131 77.5302 32.5132 78.0643C32.3801 78.7651 32.8793 78.9654 33.4783 79.0655L34.8427 79.2991L35.1089 77.6638ZM35.475 75.2941L33.7445 75.0271C33.1455 74.927 32.7129 75.2274 32.6131 75.7947C32.5132 76.4622 33.0124 76.7292 33.5781 76.8294L35.1422 77.0964L35.475 75.2941Z" fill="#1B3B36"/>
<path d="M35.4084 80L33.5449 79.6996C33.079 79.6329 32.48 79.5328 32.2137 79.2991C31.9142 79.0321 31.7146 78.6316 31.7811 78.131C31.881 77.5636 32.2137 77.2299 32.7462 77.0964C32.1472 76.8627 31.8477 76.3287 31.9808 75.6946C32.1139 74.927 32.7795 74.2929 33.7778 74.4597L36.2736 74.8602L35.4084 80ZM35.1089 77.6638L33.7445 77.4301C32.9791 77.2966 32.6131 77.5302 32.5132 78.0643C32.3801 78.7651 32.8793 78.9654 33.4783 79.0655L34.8427 79.2991L35.1089 77.6638ZM35.475 75.2941L33.7445 75.0271C33.1455 74.927 32.7129 75.2274 32.6131 75.7947C32.5132 76.4622 33.0124 76.7292 33.5781 76.8294L35.1422 77.0964L35.475 75.2941Z" fill="black" fill-opacity="0.2"/>
<path d="M23.9925 76.8631L23.2937 76.5627L23.5599 70.9557L24.2588 71.2561L24.1256 72.9248L26.1556 73.8259L27.3203 72.6244L27.9859 72.9248L23.9925 76.8631ZM25.723 74.2598L24.0924 73.5256L23.8927 76.1288L25.723 74.2598Z" fill="#1B3B36"/>
<path d="M23.9925 76.8631L23.2937 76.5627L23.5599 70.9557L24.2588 71.2561L24.1256 72.9248L26.1556 73.8259L27.3203 72.6244L27.9859 72.9248L23.9925 76.8631ZM25.723 74.2598L24.0924 73.5256L23.8927 76.1288L25.723 74.2598Z" fill="black" fill-opacity="0.2"/>
<path d="M16.3741 72.5573L15.8084 72.0901L16.3408 67.0505L13.6786 70.3546L13.1794 69.9541L16.474 65.8823L17.073 66.3496L16.5405 71.3558L19.1695 68.0851L19.6686 68.4856L16.3741 72.5573Z" fill="#1B3B36"/>
<path d="M16.3741 72.5573L15.8084 72.0901L16.3408 67.0505L13.6786 70.3546L13.1794 69.9541L16.474 65.8823L17.073 66.3496L16.5405 71.3558L19.1695 68.0851L19.6686 68.4856L16.3741 72.5573Z" fill="black" fill-opacity="0.2"/>
<path d="M8.65136 65.0814L8.25202 64.514L10.3485 62.9788L6.68796 62.3446L6.15552 61.6104L9.15053 62.1778L10.3485 58.4731L10.8477 59.174L9.81608 62.2779L10.9808 62.5115L12.4783 61.4435L12.8776 62.0109L8.65136 65.0814Z" fill="#1B3B36"/>
<path d="M8.65136 65.0814L8.25202 64.514L10.3485 62.9788L6.68796 62.3446L6.15552 61.6104L9.15053 62.1778L10.3485 58.4731L10.8477 59.174L9.81608 62.2779L10.9808 62.5115L12.4783 61.4435L12.8776 62.0109L8.65136 65.0814Z" fill="black" fill-opacity="0.2"/>
<path d="M1.03199 49.4618L0.898881 48.7609L3.09522 48.3604L2.59605 45.657L0.399713 46.0575L0.266602 45.3567L5.39139 44.3888L5.52451 45.0897L3.16178 45.5235L3.66094 48.2269L6.02367 47.793L6.15678 48.4939L1.03199 49.4618Z" fill="#1B3B36"/>
<path d="M1.03199 49.4618L0.898881 48.7609L3.09522 48.3604L2.59605 45.657L0.399713 46.0575L0.266602 45.3567L5.39139 44.3888L5.52451 45.0897L3.16178 45.5235L3.66094 48.2269L6.02367 47.793L6.15678 48.4939L1.03199 49.4618Z" fill="black" fill-opacity="0.2"/>
<path d="M0.000362108 36.4786C0.133474 34.8098 1.53114 34.1089 2.96209 34.2091C4.39304 34.3092 5.62432 35.2771 5.45793 36.9458C5.32482 38.6146 3.92715 39.3154 2.4962 39.2153C1.09853 39.1152 -0.132749 38.1473 0.000362108 36.4786ZM4.89221 36.9124C4.99204 35.6442 3.96043 35.0101 2.89554 34.9099C1.83065 34.8098 0.699197 35.2437 0.599364 36.5119C0.49953 37.7802 1.53114 38.4143 2.59604 38.5144C3.62765 38.6479 4.7591 38.2141 4.89221 36.9124Z" fill="#1B3B36"/>
<path d="M0.000362108 36.4786C0.133474 34.8098 1.53114 34.1089 2.96209 34.2091C4.39304 34.3092 5.62432 35.2771 5.45793 36.9458C5.32482 38.6146 3.92715 39.3154 2.4962 39.2153C1.09853 39.1152 -0.132749 38.1473 0.000362108 36.4786ZM4.89221 36.9124C4.99204 35.6442 3.96043 35.0101 2.89554 34.9099C1.83065 34.8098 0.699197 35.2437 0.599364 36.5119C0.49953 37.7802 1.53114 38.4143 2.59604 38.5144C3.62765 38.6479 4.7591 38.2141 4.89221 36.9124Z" fill="black" fill-opacity="0.2"/>
<path d="M2.79607 26.9338L2.19707 28.5692L1.63135 28.3689L3.0623 24.4307L3.62802 24.6309L3.02902 26.2663L7.38842 27.8683L7.15547 28.5358L2.79607 26.9338Z" fill="#1B3B36"/>
<path d="M2.79607 26.9338L2.19707 28.5692L1.63135 28.3689L3.0623 24.4307L3.62802 24.6309L3.02902 26.2663L7.38842 27.8683L7.15547 28.5358L2.79607 26.9338Z" fill="black" fill-opacity="0.2"/>
<path d="M5.82251 19.1573L7.81918 16.1536L8.31835 16.4873L6.68773 18.9237L8.05213 19.8582L9.54963 17.5887L10.0488 17.9224L8.5513 20.1919L10.0488 21.1932L11.6794 18.7568L12.1786 19.0906L10.1486 22.1277L5.82251 19.1573Z" fill="#1B3B36"/>
<path d="M5.82251 19.1573L7.81918 16.1536L8.31835 16.4873L6.68773 18.9237L8.05213 19.8582L9.54963 17.5887L10.0488 17.9224L8.5513 20.1919L10.0488 21.1932L11.6794 18.7568L12.1786 19.0906L10.1486 22.1277L5.82251 19.1573Z" fill="black" fill-opacity="0.2"/>
<path d="M11.915 11.4472L12.4142 10.98L15.5423 14.4176L17.5723 12.5486L17.9716 12.9825L15.4092 15.3187L11.915 11.4472Z" fill="#1B3B36"/>
<path d="M11.915 11.4472L12.4142 10.98L15.5423 14.4176L17.5723 12.5486L17.9716 12.9825L15.4092 15.3187L11.915 11.4472Z" fill="black" fill-opacity="0.2"/>
</svg>
