<svg width="36" height="36" viewBox="0 0 36 36" fill="none" xmlns="http://www.w3.org/2000/svg">
<path d="M18 0L19.3098 11.8377L25.3213 1.55618L21.703 12.9032L31.3766 5.95565L23.456 14.85L35.119 12.4377L24.2655 17.3415L35.9014 19.8815L23.9917 19.9468L33.5885 27L22.6818 22.2155L28.5801 32.5623L20.5624 23.7553L21.7424 35.6067L18 24.3L14.2576 35.6067L15.4376 23.7553L7.41987 32.5623L13.3182 22.2155L2.41154 27L12.0083 19.9468L0.0986061 19.8815L11.7345 17.3415L0.880983 12.4377L12.544 14.85L4.62339 5.95565L14.297 12.9032L10.6787 1.55618L16.6902 11.8377L18 0Z" fill="#FCD043"/>
</svg>
